<svg width="18" height="19" viewBox="0 0 18 19" fill="none" xmlns="http://www.w3.org/2000/svg">
<path d="M9 0.214844C13.957 0.214844 18 4.25781 18 9.21484C18 14.207 13.957 18.2148 9 18.2148C4.00781 18.2148 0 14.207 0 9.21484C0 4.25781 4.00781 0.214844 9 0.214844ZM9 4.71484C8.36719 4.71484 7.875 5.24219 7.875 5.83984C7.875 6.47266 8.36719 6.96484 9 6.96484C9.59766 6.96484 10.125 6.47266 10.125 5.83984C10.125 5.24219 9.59766 4.71484 9 4.71484ZM10.4062 13.7148C10.8633 13.7148 11.25 13.3633 11.25 12.8711C11.25 12.4141 10.8633 12.0273 10.4062 12.0273H9.84375V8.93359C9.84375 8.47656 9.45703 8.08984 9 8.08984H7.875C7.38281 8.08984 7.03125 8.47656 7.03125 8.93359C7.03125 9.42578 7.38281 9.77734 7.875 9.77734H8.15625V12.0273H7.59375C7.10156 12.0273 6.75 12.4141 6.75 12.8711C6.75 13.3633 7.10156 13.7148 7.59375 13.7148H10.4062Z" fill="#A3AECE"/>
</svg>
