<svg width="161" height="47" viewBox="0 0 161 47" fill="none" xmlns="http://www.w3.org/2000/svg">
<g clip-path="url(#clip0_5031_3571)">
<path d="M0 36.8145V11.856H5.76661V36.8145H0Z" fill="#2E3192"/>
<path d="M27.8734 36.8146H22.2459V26.443C22.2459 25.2257 22.0164 24.3423 21.5573 23.7858C21.0982 23.2362 20.5 22.958 19.7487 22.958C19.3522 22.958 18.9487 23.0415 18.5522 23.2015C18.1558 23.3684 17.7662 23.591 17.3906 23.8901C17.0149 24.1823 16.6811 24.5301 16.3889 24.9266C16.0967 25.3231 15.8672 25.7613 15.7002 26.2274V36.8076H10.0728V18.36H15.1368V21.4555C15.8185 20.3564 16.7784 19.5078 18.0166 18.9095C19.2618 18.3113 20.6878 18.0122 22.3085 18.0122C23.505 18.0122 24.4649 18.2278 25.1884 18.6661C25.9118 19.0974 26.4753 19.6608 26.8787 20.3564C27.2752 21.0451 27.5395 21.8033 27.6717 22.6241C27.8039 23.4449 27.8665 24.2379 27.8665 25.017V36.8285L27.8734 36.8146Z" fill="#2E3192"/>
<path d="M43.378 35.8335C42.6059 36.1604 41.7225 36.4665 40.7208 36.7447C39.726 37.023 38.7244 37.169 37.7157 37.169C37.0132 37.169 36.3523 37.0786 35.7332 36.9047C35.1141 36.7308 34.5646 36.4456 34.0986 36.063C33.6325 35.6735 33.2569 35.1657 32.9925 34.5327C32.7212 33.8997 32.5891 33.1415 32.5891 32.2441V22.6099H30.231V18.3597H32.5891V12.4888H38.2166V18.3597H41.9798V22.6099H38.2166V30.3103C38.2166 30.9225 38.3696 31.3607 38.6757 31.632C38.9817 31.9033 39.3643 32.0354 39.8373 32.0354C40.2617 32.0354 40.6929 31.9659 41.1381 31.8267C41.5833 31.6876 41.9729 31.5346 42.2998 31.3676L43.3919 35.8335H43.378Z" fill="#2E3192"/>
<path d="M53.9237 37.1693C52.3794 37.1693 50.9882 36.9189 49.757 36.4111C48.5257 35.9103 47.4823 35.2216 46.6267 34.3521C45.7711 33.4826 45.1173 32.4809 44.679 31.3471C44.2338 30.2132 44.0112 29.0237 44.0112 27.7786C44.0112 26.443 44.2338 25.184 44.679 24.0014C45.1242 22.8189 45.7711 21.7824 46.6128 20.892C47.4545 20.0017 48.491 19.2991 49.7222 18.7843C50.9534 18.2696 52.3516 18.0122 53.9237 18.0122C55.4958 18.0122 56.887 18.2696 58.1043 18.7843C59.3216 19.2991 60.3511 19.9947 61.1998 20.8781C62.0415 21.7546 62.6814 22.7702 63.1127 23.9179C63.544 25.0657 63.7666 26.2761 63.7666 27.5421C63.7666 27.869 63.7527 28.196 63.7318 28.509C63.7109 28.822 63.6761 29.1002 63.6275 29.3368H49.9865C50.077 30.5819 50.5291 31.521 51.343 32.1679C52.1499 32.8148 53.0681 33.1348 54.1045 33.1348C54.9254 33.1348 55.7184 32.9331 56.4766 32.5366C57.2348 32.1401 57.7495 31.5975 58.0069 30.9227L62.7858 32.2583C62.0623 33.7121 60.9354 34.8947 59.4121 35.8059C57.8887 36.7172 56.0592 37.1763 53.9306 37.1763L53.9237 37.1693ZM57.8261 25.8517C57.7078 24.6831 57.2835 23.758 56.56 23.0763C55.8366 22.3946 54.9323 22.0537 53.8541 22.0537C52.7759 22.0537 51.8438 22.4015 51.1273 23.0902C50.4108 23.7788 49.9935 24.704 49.8822 25.8517H57.8261Z" fill="#2E3192"/>
<path d="M84.1195 36.8146H78.492V26.443C78.492 25.2257 78.2625 24.3423 77.8034 23.7858C77.3443 23.2362 76.7461 22.958 75.9948 22.958C75.5983 22.958 75.1948 23.0415 74.7983 23.2015C74.4018 23.3684 74.0123 23.591 73.6367 23.8901C73.261 24.1823 72.9272 24.5301 72.635 24.9266C72.3428 25.3231 72.1133 25.7613 71.9463 26.2274V36.8076H66.3188V18.36H71.3829V21.4555C72.0646 20.3564 73.0245 19.5078 74.2627 18.9095C75.5079 18.3113 76.9339 18.0122 78.5546 18.0122C79.7511 18.0122 80.711 18.2278 81.4345 18.6661C82.1579 19.0974 82.7214 19.6608 83.1248 20.3564C83.5213 21.0451 83.7856 21.8033 83.9178 22.6241C84.05 23.4449 84.1126 24.2379 84.1126 25.017V36.8285L84.1195 36.8146Z" fill="#2E3192"/>
<path d="M99.6256 35.8335C98.8534 36.1604 97.97 36.4665 96.9683 36.7447C95.9736 37.023 94.9719 37.169 93.9633 37.169C93.2607 37.169 92.5999 37.0786 91.9808 36.9047C91.3617 36.7308 90.8122 36.4456 90.3461 36.063C89.8801 35.6735 89.5044 35.1657 89.2401 34.5327C88.9688 33.8997 88.8366 33.1415 88.8366 32.2441V22.6099H86.4785V18.3597H88.8366V12.4888H94.4641V18.3597H98.2274V22.6099H94.4641V30.3103C94.4641 30.9225 94.6172 31.3607 94.9232 31.632C95.2293 31.9033 95.6119 32.0354 96.0849 32.0354C96.5092 32.0354 96.9405 31.9659 97.3857 31.8267C97.8309 31.6876 98.2204 31.5346 98.5474 31.3676L99.6395 35.8335H99.6256Z" fill="#2E3192"/>
<path d="M116.723 38.8457C124.411 38.8457 130.643 32.6138 130.643 24.9265C130.643 17.2391 124.411 11.0073 116.723 11.0073C109.036 11.0073 102.804 17.2391 102.804 24.9265C102.804 32.6138 109.036 38.8457 116.723 38.8457Z" fill="#009245"/>
<path d="M133.37 37.4478V11.5571H140.695V37.4478H133.37Z" fill="#006837"/>
<mask id="mask0_5031_3571" style="mask-type:luminance" maskUnits="userSpaceOnUse" x="102" y="11" width="29" height="28">
<path d="M116.723 38.8457C124.411 38.8457 130.643 32.6138 130.643 24.9265C130.643 17.2391 124.411 11.0073 116.723 11.0073C109.036 11.0073 102.804 17.2391 102.804 24.9265C102.804 32.6138 109.036 38.8457 116.723 38.8457Z" fill="white"/>
</mask>
<g mask="url(#mask0_5031_3571)">
<path d="M130.782 7.62646H116.724V24.9263H130.782V7.62646Z" fill="#39B54A"/>
</g>
<path d="M152.214 14.2902H150.231V18.756H148.416V14.2902H146.433V12.4746H152.214V14.2902ZM158.265 12.5163H160.957V18.756H159.142V14.8536L157.806 17.8795H156.325L154.989 14.8536V18.756H153.174V12.5163H155.845L157.055 15.7927L158.265 12.5163Z" fill="#2E3192"/>
</g>
<defs>
<clipPath id="clip0_5031_3571">
<rect width="160.957" height="31.2121" fill="white" transform="translate(0 7.62646)"/>
</clipPath>
</defs>
</svg>
