<svg width="119" height="34" viewBox="0 0 119 34" fill="none" xmlns="http://www.w3.org/2000/svg">
<path d="M20.6696 33.001C13.2416 34.4661 5.41477 31.6733 1.88452 24.8977L9.21198 20.8554C9.27166 21.0273 9.35332 21.1928 9.42556 21.3521C9.82758 22.2237 11.0054 23.9075 11.8597 24.3573C11.9068 24.3854 11.935 24.4135 12.0041 24.3979V19.3123L16.106 17.0506V25.9504C16.6462 25.9879 17.2273 26.0192 17.7706 25.9911C18.0125 25.9786 18.6626 25.9286 18.8699 25.8599C18.9013 25.8505 18.9233 25.838 18.9327 25.8005L18.9579 15.4762L22.8776 13.3113V23.9075C22.9404 23.9199 22.9718 23.9012 23.022 23.87C23.311 23.6825 23.9266 22.8797 24.1402 22.5736C26.1157 19.7465 26.2633 15.3856 24.5579 12.3961C24.5547 12.3929 24.5547 12.3898 24.5516 12.3867L31.4425 8.58496C31.4833 8.65993 31.5273 8.73178 31.5744 8.80363C32.6517 10.4811 33.305 12.7772 33.5405 14.7889C34.5613 23.5638 29.4764 31.261 20.6696 33.001Z" fill="white"/>
<path d="M30.4466 6.991L23.4175 10.8708C19.6988 7.00974 12.4279 7.53143 9.69854 12.4484C8.6024 14.4226 8.33858 16.7718 8.70291 18.9897L1.11476 23.1788C-0.826248 18.0557 -0.238919 11.8861 2.927 7.3846C9.18031 -1.4965 23.942 -1.6402 30.4466 6.991Z" fill="#00A99D"/>
<path d="M44.7979 24.6191V7.81914H51.2059C52.3579 7.81914 53.3739 8.01914 54.2539 8.41914C55.1339 8.81914 55.8219 9.39514 56.3179 10.1471C56.8139 10.8831 57.0619 11.7631 57.0619 12.7871C57.0619 13.9071 56.7579 14.8431 56.1499 15.5951C55.5419 16.3471 54.7019 16.8831 53.6299 17.2031L58.2139 24.6191H53.8459L49.8379 17.7791H48.5899V24.6191H44.7979ZM48.5899 14.5631H51.1339C51.7259 14.5631 52.1659 14.4751 52.4539 14.2991C52.7579 14.1071 52.9659 13.8751 53.0779 13.6031C53.1899 13.3311 53.2459 13.0591 53.2459 12.7871C53.2459 12.5151 53.1899 12.2511 53.0779 11.9951C52.9659 11.7231 52.7579 11.4991 52.4539 11.3231C52.1659 11.1471 51.7259 11.0591 51.1339 11.0591H48.5899V14.5631ZM67.0232 24.9071C65.8712 24.9071 64.7672 24.7071 63.7112 24.3071C62.6712 23.9071 61.7352 23.3311 60.9032 22.5791C60.0872 21.8271 59.4392 20.9151 58.9592 19.8431C58.4952 18.7711 58.2632 17.5631 58.2632 16.2191C58.2632 14.8751 58.4952 13.6671 58.9592 12.5951C59.4392 11.5231 60.0872 10.6111 60.9032 9.85914C61.7352 9.10714 62.6712 8.53114 63.7112 8.13114C64.7672 7.73114 65.8712 7.53114 67.0232 7.53114C68.1752 7.53114 69.2792 7.73114 70.3352 8.13114C71.3912 8.53114 72.3272 9.10714 73.1432 9.85914C73.9752 10.6111 74.6312 11.5231 75.1112 12.5951C75.5912 13.6671 75.8312 14.8751 75.8312 16.2191C75.8312 17.5631 75.5912 18.7711 75.1112 19.8431C74.6312 20.9151 73.9752 21.8271 73.1432 22.5791C72.3272 23.3311 71.3912 23.9071 70.3352 24.3071C69.2792 24.7071 68.1752 24.9071 67.0232 24.9071ZM67.0232 21.4751C67.8072 21.4751 68.5752 21.2831 69.3272 20.8991C70.0792 20.5151 70.6952 19.9391 71.1752 19.1711C71.6712 18.3871 71.9192 17.4031 71.9192 16.2191C71.9192 15.0191 71.6712 14.0351 71.1752 13.2671C70.6792 12.4831 70.0552 11.9071 69.3032 11.5391C68.5512 11.1551 67.7912 10.9631 67.0232 10.9631C66.2552 10.9631 65.4952 11.1551 64.7432 11.5391C64.0072 11.9071 63.3912 12.4831 62.8952 13.2671C62.4152 14.0351 62.1752 15.0191 62.1752 16.2191C62.1752 17.4031 62.4152 18.3871 62.8952 19.1711C63.3752 19.9391 63.9832 20.5151 64.7192 20.8991C65.4712 21.2831 66.2392 21.4751 67.0232 21.4751ZM77.6344 24.6191V7.81914H81.4264V24.6191H77.6344Z" fill="white"/>
<path d="M91.9842 24.9071C90.8322 24.9071 89.7282 24.7071 88.6722 24.3071C87.6322 23.9071 86.6962 23.3311 85.8642 22.5791C85.0482 21.8271 84.4002 20.9151 83.9202 19.8431C83.4562 18.7711 83.2242 17.5631 83.2242 16.2191C83.2242 14.8751 83.4562 13.6671 83.9202 12.5951C84.4002 11.5231 85.0482 10.6111 85.8642 9.85914C86.6962 9.10714 87.6322 8.53114 88.6722 8.13114C89.7282 7.73114 90.8322 7.53114 91.9842 7.53114C93.1362 7.53114 94.2402 7.73114 95.2962 8.13114C96.3522 8.53114 97.2882 9.10714 98.1042 9.85914C98.9362 10.6111 99.5922 11.5231 100.072 12.5951C100.552 13.6671 100.792 14.8751 100.792 16.2191C100.792 17.5631 100.552 18.7711 100.072 19.8431C99.5922 20.9151 98.9362 21.8271 98.1042 22.5791C97.2882 23.3311 96.3522 23.9071 95.2962 24.3071C94.2402 24.7071 93.1362 24.9071 91.9842 24.9071ZM91.9842 21.4751C92.7682 21.4751 93.5362 21.2831 94.2882 20.8991C95.0402 20.5151 95.6562 19.9391 96.1362 19.1711C96.6322 18.3871 96.8802 17.4031 96.8802 16.2191C96.8802 15.0191 96.6322 14.0351 96.1362 13.2671C95.6402 12.4831 95.0162 11.9071 94.2642 11.5391C93.5122 11.1551 92.7522 10.9631 91.9842 10.9631C91.2162 10.9631 90.4562 11.1551 89.7042 11.5391C88.9682 11.9071 88.3522 12.4831 87.8562 13.2671C87.3762 14.0351 87.1362 15.0191 87.1362 16.2191C87.1362 17.4031 87.3762 18.3871 87.8562 19.1711C88.3362 19.9391 88.9442 20.5151 89.6802 20.8991C90.4322 21.2831 91.2002 21.4751 91.9842 21.4751ZM102.571 24.6191V7.81914H106.363L113.539 18.4031V7.81914H117.331V24.6191H113.539L106.363 14.0831V24.6191H102.571Z" fill="#00A99D"/>
</svg>
