<svg width="20" height="20" viewBox="0 0 20 20" fill="none" xmlns="http://www.w3.org/2000/svg">
<path d="M18.5781 16.668C19.1055 17.2305 19.1055 18.1094 18.5781 18.6719C18.0156 19.1992 17.1367 19.1992 16.5742 18.6719L12.3906 14.4531C10.9492 15.4023 9.19141 15.8945 7.29297 15.6484C4.05859 15.1914 1.45703 12.5547 1.03516 9.35547C0.4375 4.57422 4.48047 0.53125 9.26172 1.12891C12.4609 1.55078 15.0977 4.15234 15.5547 7.38672C15.8008 9.28516 15.3086 11.043 14.3594 12.4492L18.5781 16.668ZM3.77734 8.37109C3.77734 10.8672 5.78125 12.8711 8.27734 12.8711C10.7383 12.8711 12.7773 10.8672 12.7773 8.37109C12.7773 5.91016 10.7383 3.87109 8.27734 3.87109C5.78125 3.87109 3.77734 5.91016 3.77734 8.37109Z" fill="#AAAAAA"/>
</svg>
