<svg width="9" height="11" viewBox="0 0 9 11" fill="none" xmlns="http://www.w3.org/2000/svg">
<path d="M1.17822 4.55859C0.615723 4.55859 0.311035 3.87891 0.73291 3.45703L3.82666 0.269531C3.94385 0.128906 4.13135 0.0585938 4.29541 0.0585938C4.45947 0.0585938 4.62354 0.128906 4.74072 0.269531L7.83447 3.45703C8.25635 3.87891 7.95166 4.55859 7.38916 4.55859H1.17822ZM7.38916 6.05859C7.95166 6.05859 8.25635 6.76172 7.83447 7.18359L4.74072 10.3711C4.62354 10.5117 4.45947 10.5586 4.29541 10.5586C4.10791 10.5586 3.94385 10.5117 3.82666 10.3711L0.73291 7.18359C0.311035 6.76172 0.615723 6.05859 1.17822 6.05859H7.38916Z" fill="black"/>
</svg>
