<svg width="5" height="14" viewBox="0 0 5 14" fill="none" xmlns="http://www.w3.org/2000/svg">
<path d="M2.83301 10.0586C3.45801 10.0586 4.02051 10.4023 4.33301 10.9336C4.64551 11.4961 4.64551 12.1523 4.33301 12.6836C4.02051 13.2461 3.45801 13.5586 2.83301 13.5586C2.17676 13.5586 1.61426 13.2461 1.30176 12.6836C0.989258 12.1523 0.989258 11.4961 1.30176 10.9336C1.61426 10.4023 2.17676 10.0586 2.83301 10.0586ZM2.83301 5.05859C3.45801 5.05859 4.02051 5.40234 4.33301 5.93359C4.64551 6.49609 4.64551 7.15234 4.33301 7.68359C4.02051 8.24609 3.45801 8.55859 2.83301 8.55859C2.17676 8.55859 1.61426 8.24609 1.30176 7.68359C0.989258 7.15234 0.989258 6.49609 1.30176 5.93359C1.61426 5.40234 2.17676 5.05859 2.83301 5.05859ZM4.58301 1.80859C4.58301 2.46484 4.23926 3.02734 3.70801 3.33984C3.14551 3.65234 2.48926 3.65234 1.95801 3.33984C1.39551 3.02734 1.08301 2.46484 1.08301 1.80859C1.08301 1.18359 1.39551 0.621094 1.95801 0.308594C2.48926 -0.00390625 3.14551 -0.00390625 3.70801 0.308594C4.23926 0.621094 4.58301 1.18359 4.58301 1.80859Z" fill="#666666"/>
</svg>
